<svg width="241" height="52" viewBox="0 0 241 52" fill="none" xmlns="http://www.w3.org/2000/svg">
<path d="M42.2127 19.8461C42.1688 22.1 41.6667 24.2255 40.7778 26.1658C45.4627 26.9458 45.5001 30.7613 45.5001 32.5C45.5001 34.112 45.5001 39 39.0066 39H32.5001C28.267 39 24.4758 41.0443 22.1033 44.2049C20.5287 43.0121 19.5001 41.1206 19.5001 39V32.5C19.5001 31.2146 19.7292 30.2023 20.0835 29.367C19.8933 29.3329 19.7032 29.25 19.5001 29.25H13.33C13.1203 30.2559 13.0066 31.3316 13.0066 32.5V39C13.0066 46.1793 18.8208 52 26.0001 52C26.0001 48.4071 28.9072 45.5 32.5001 45.5H39.0066C45.5001 45.5 52.0001 41.8438 52.0001 32.5C52.0001 24.5489 47.481 20.865 42.2127 19.8461Z" fill="#009688"/>
<path d="M26 6.5C28.4245 6.5 32.5 7.345 32.5 13V19.5C32.5 21.6271 31.4714 23.5154 29.8967 24.7016C27.5242 21.5475 23.7396 19.5 19.5 19.5H13.0065C6.5 19.5 6.5 14.6088 6.5 13C6.5 11.0581 6.5 6.5 13.0065 6.5H26ZM26 0H13.0065C6.5 0 0 3.45312 0 13C0 22.3438 6.5 26 13.0065 26H19.5C23.0929 26 26 28.9136 26 32.5C33.1792 32.5 39.0065 26.6793 39.0065 19.5V13C39.0065 4.02838 32.5 0 26 0Z" fill="#009688"/>
<path d="M90.7422 27.5391H77.8047V35.6719H93.0859V42H69.5781V7.875H93.1328V14.2266H77.8047V21.4219H90.7422V27.5391ZM96.4375 42V7.875H107.43C110.445 7.875 113.156 8.5625 115.562 9.9375C117.969 11.2969 119.844 13.2266 121.188 15.7266C122.547 18.2109 123.234 21 123.25 24.0938V25.6641C123.25 28.7891 122.586 31.5938 121.258 34.0781C119.945 36.5469 118.086 38.4844 115.68 39.8906C113.289 41.2812 110.617 41.9844 107.664 42H96.4375ZM104.664 14.2266V35.6719H107.523C109.883 35.6719 111.695 34.8359 112.961 33.1641C114.227 31.4766 114.859 28.9766 114.859 25.6641V24.1875C114.859 20.8906 114.227 18.4062 112.961 16.7344C111.695 15.0625 109.852 14.2266 107.43 14.2266H104.664Z" fill="#009688"/>
<path d="M154.258 14.2266H144.016V42H135.789V14.2266H125.734V7.875H154.258V14.2266ZM167.734 42C167.453 41.4844 167.203 40.7266 166.984 39.7266C165.531 41.5547 163.5 42.4688 160.891 42.4688C158.5 42.4688 156.469 41.75 154.797 40.3125C153.125 38.8594 152.289 37.0391 152.289 34.8516C152.289 32.1016 153.305 30.0234 155.336 28.6172C157.367 27.2109 160.32 26.5078 164.195 26.5078H166.633V25.1719C166.633 22.8438 165.625 21.6797 163.609 21.6797C161.734 21.6797 160.797 22.6016 160.797 24.4453H152.898C152.898 21.9922 153.938 20 156.016 18.4688C158.109 16.9375 160.773 16.1719 164.008 16.1719C167.242 16.1719 169.797 16.9609 171.672 18.5391C173.547 20.1172 174.508 22.2812 174.555 25.0312V36.2578C174.586 38.5859 174.945 40.3672 175.633 41.6016V42H167.734ZM162.789 36.8438C163.773 36.8438 164.586 36.6328 165.227 36.2109C165.883 35.7891 166.352 35.3125 166.633 34.7812V30.7266H164.336C161.586 30.7266 160.211 31.9609 160.211 34.4297C160.211 35.1484 160.453 35.7344 160.938 36.1875C161.422 36.625 162.039 36.8438 162.789 36.8438ZM187.281 42H179.359V6H187.281V42ZM202.352 32.5547L200.125 34.7812V42H192.227V5.97656H200.125V25.1016L200.922 24.0469L206.875 16.6406H216.344L207.461 27.0703L216.93 42H207.883L202.352 32.5547ZM231.695 34.875C231.695 34.2031 231.344 33.6641 230.641 33.2578C229.938 32.8516 228.602 32.4297 226.633 31.9922C224.664 31.5547 223.039 30.9844 221.758 30.2812C220.477 29.5625 219.5 28.6953 218.828 27.6797C218.156 26.6641 217.82 25.5 217.82 24.1875C217.82 21.8594 218.781 19.9453 220.703 18.4453C222.625 16.9297 225.141 16.1719 228.25 16.1719C231.594 16.1719 234.281 16.9297 236.312 18.4453C238.344 19.9609 239.359 21.9531 239.359 24.4219H231.438C231.438 22.3906 230.367 21.375 228.227 21.375C227.398 21.375 226.703 21.6094 226.141 22.0781C225.578 22.5312 225.297 23.1016 225.297 23.7891C225.297 24.4922 225.641 25.0625 226.328 25.5C227.016 25.9375 228.109 26.2969 229.609 26.5781C231.125 26.8594 232.453 27.1953 233.594 27.5859C237.406 28.8984 239.312 31.25 239.312 34.6406C239.312 36.9531 238.281 38.8359 236.219 40.2891C234.172 41.7422 231.516 42.4688 228.25 42.4688C226.078 42.4688 224.141 42.0781 222.438 41.2969C220.734 40.5156 219.406 39.4531 218.453 38.1094C217.5 36.7656 217.023 35.3516 217.023 33.8672H224.406C224.438 35.0391 224.828 35.8984 225.578 36.4453C226.328 36.9766 227.289 37.2422 228.461 37.2422C229.539 37.2422 230.344 37.0234 230.875 36.5859C231.422 36.1484 231.695 35.5781 231.695 34.875Z" fill="#C4C4C4"/>
</svg>
