<svg width="303" height="56" viewBox="0 0 303 56" fill="none" xmlns="http://www.w3.org/2000/svg">
<path d="M42.2127 21.8461C42.1688 24.1 41.6667 26.2255 40.7778 28.1658C45.4627 28.9458 45.5001 32.7613 45.5001 34.5C45.5001 36.112 45.5001 41 39.0066 41H32.5001C28.267 41 24.4758 43.0443 22.1033 46.2049C20.5287 45.0121 19.5001 43.1206 19.5001 41V34.5C19.5001 33.2146 19.7292 32.2023 20.0835 31.367C19.8933 31.3329 19.7032 31.25 19.5001 31.25H13.33C13.1203 32.2559 13.0066 33.3316 13.0066 34.5V41C13.0066 48.1793 18.8208 54 26.0001 54C26.0001 50.4071 28.9072 47.5 32.5001 47.5H39.0066C45.5001 47.5 52.0001 43.8438 52.0001 34.5C52.0001 26.5489 47.481 22.865 42.2127 21.8461Z" fill="white"/>
<path d="M26 8.5C28.4245 8.5 32.5 9.345 32.5 15V21.5C32.5 23.6271 31.4714 25.5154 29.8967 26.7016C27.5242 23.5475 23.7396 21.5 19.5 21.5H13.0065C6.5 21.5 6.5 16.6088 6.5 15C6.5 13.0581 6.5 8.5 13.0065 8.5H26ZM26 2H13.0065C6.5 2 0 5.45312 0 15C0 24.3438 6.5 28 13.0065 28H19.5C23.0929 28 26 30.9136 26 34.5C33.1792 34.5 39.0065 28.6793 39.0065 21.5V15C39.0065 6.02838 32.5 2 26 2Z" fill="white"/>
<path d="M90.7422 29.5391H77.8047V37.6719H93.0859V44H69.5781V9.875H93.1328V16.2266H77.8047V23.4219H90.7422V29.5391ZM96.4375 44V9.875H107.43C110.445 9.875 113.156 10.5625 115.562 11.9375C117.969 13.2969 119.844 15.2266 121.188 17.7266C122.547 20.2109 123.234 23 123.25 26.0938V27.6641C123.25 30.7891 122.586 33.5938 121.258 36.0781C119.945 38.5469 118.086 40.4844 115.68 41.8906C113.289 43.2812 110.617 43.9844 107.664 44H96.4375ZM104.664 16.2266V37.6719H107.523C109.883 37.6719 111.695 36.8359 112.961 35.1641C114.227 33.4766 114.859 30.9766 114.859 27.6641V26.1875C114.859 22.8906 114.227 20.4062 112.961 18.7344C111.695 17.0625 109.852 16.2266 107.43 16.2266H104.664ZM154.234 9.875V32.2109C154.234 34.7422 153.695 36.9375 152.617 38.7969C151.539 40.6406 149.992 42.0469 147.977 43.0156C145.961 43.9844 143.578 44.4688 140.828 44.4688C136.672 44.4688 133.398 43.3906 131.008 41.2344C128.617 39.0781 127.398 36.125 127.352 32.375V9.875H135.625V32.5391C135.719 36.2734 137.453 38.1406 140.828 38.1406C142.531 38.1406 143.82 37.6719 144.695 36.7344C145.57 35.7969 146.008 34.2734 146.008 32.1641V9.875H154.234Z" fill="white"/>
<path d="M187.328 39.7812C186.062 41.1875 184.211 42.3203 181.773 43.1797C179.336 44.0391 176.664 44.4688 173.758 44.4688C169.289 44.4688 165.719 43.1016 163.047 40.3672C160.375 37.6328 158.945 33.8281 158.758 28.9531L158.734 26C158.734 22.6406 159.328 19.7109 160.516 17.2109C161.703 14.6953 163.398 12.7656 165.602 11.4219C167.82 10.0625 170.383 9.38281 173.289 9.38281C177.539 9.38281 180.836 10.3594 183.18 12.3125C185.539 14.25 186.914 17.1484 187.305 21.0078H179.383C179.102 19.1016 178.492 17.7422 177.555 16.9297C176.617 16.1172 175.289 15.7109 173.57 15.7109C171.508 15.7109 169.914 16.5859 168.789 18.3359C167.664 20.0859 167.094 22.5859 167.078 25.8359V27.8984C167.078 31.3047 167.656 33.8672 168.812 35.5859C169.984 37.2891 171.82 38.1406 174.32 38.1406C176.461 38.1406 178.055 37.6641 179.102 36.7109V31.4141H173.383V25.7656H187.328V39.7812ZM206.031 44C205.75 43.4844 205.5 42.7266 205.281 41.7266C203.828 43.5547 201.797 44.4688 199.188 44.4688C196.797 44.4688 194.766 43.75 193.094 42.3125C191.422 40.8594 190.586 39.0391 190.586 36.8516C190.586 34.1016 191.602 32.0234 193.633 30.6172C195.664 29.2109 198.617 28.5078 202.492 28.5078H204.93V27.1719C204.93 24.8438 203.922 23.6797 201.906 23.6797C200.031 23.6797 199.094 24.6016 199.094 26.4453H191.195C191.195 23.9922 192.234 22 194.312 20.4688C196.406 18.9375 199.07 18.1719 202.305 18.1719C205.539 18.1719 208.094 18.9609 209.969 20.5391C211.844 22.1172 212.805 24.2812 212.852 27.0312V38.2578C212.883 40.5859 213.242 42.3672 213.93 43.6016V44H206.031ZM201.086 38.8438C202.07 38.8438 202.883 38.6328 203.523 38.2109C204.18 37.7891 204.648 37.3125 204.93 36.7812V32.7266H202.633C199.883 32.7266 198.508 33.9609 198.508 36.4297C198.508 37.1484 198.75 37.7344 199.234 38.1875C199.719 38.625 200.336 38.8438 201.086 38.8438ZM226.445 12.3359V18.6406H230.617V24.125H226.445V35.7266C226.445 36.6797 226.617 37.3438 226.961 37.7188C227.305 38.0938 227.984 38.2812 229 38.2812C229.781 38.2812 230.438 38.2344 230.969 38.1406V43.7891C229.547 44.2422 228.062 44.4688 226.516 44.4688C223.797 44.4688 221.789 43.8281 220.492 42.5469C219.195 41.2656 218.547 39.3203 218.547 36.7109V24.125H215.312V18.6406H218.547V12.3359H226.445ZM241.469 21.3594C243.156 19.2344 245.312 18.1719 247.938 18.1719C250.734 18.1719 252.844 19 254.266 20.6562C255.688 22.3125 256.414 24.7578 256.445 27.9922V44H248.523V28.1797C248.523 26.8359 248.25 25.8516 247.703 25.2266C247.156 24.5859 246.227 24.2656 244.914 24.2656C243.289 24.2656 242.141 24.7812 241.469 25.8125V44H233.57V8H241.469V21.3594ZM273.109 44.4688C269.219 44.4688 266.07 43.3125 263.664 41C261.258 38.6719 260.055 35.6484 260.055 31.9297V31.2734C260.055 28.6797 260.531 26.3906 261.484 24.4062C262.453 22.4219 263.859 20.8906 265.703 19.8125C267.547 18.7188 269.734 18.1719 272.266 18.1719C275.828 18.1719 278.641 19.2812 280.703 21.5C282.766 23.7031 283.797 26.7812 283.797 30.7344V33.8047H268.094C268.375 35.2266 268.992 36.3438 269.945 37.1562C270.898 37.9688 272.133 38.375 273.648 38.375C276.148 38.375 278.102 37.5 279.508 35.75L283.117 40.0156C282.133 41.375 280.734 42.4609 278.922 43.2734C277.125 44.0703 275.188 44.4688 273.109 44.4688ZM272.219 24.2656C269.906 24.2656 268.531 25.7969 268.094 28.8594H276.062V28.25C276.094 26.9844 275.773 26.0078 275.102 25.3203C274.43 24.6172 273.469 24.2656 272.219 24.2656ZM302.336 25.7891L299.734 25.6016C297.25 25.6016 295.656 26.3828 294.953 27.9453V44H287.055V18.6406H294.461L294.719 21.8984C296.047 19.4141 297.898 18.1719 300.273 18.1719C301.117 18.1719 301.852 18.2656 302.477 18.4531L302.336 25.7891Z" fill="#C4C4C4"/>
</svg>
